<svg width="455" height="465" viewBox="0 0 455 465" fill="none" xmlns="http://www.w3.org/2000/svg">
<path d="M71 463.84C71 463.84 -65.5688 280.874 40.7735 224.386C128.226 177.933 4.56439 47.151 149.956 9.93278C295.348 -27.2855 391.286 46.2616 411.012 128.081C430.739 209.901 365 240 418.752 305.192C456.5 337.5 486.5 411.5 389 463.84H71Z" fill="black" fill-opacity="0.1"/>
<path d="M387.172 464.494H363.38C362.106 463.408 364.263 460.944 366.515 460.78C367.493 460.706 368.732 460.912 370.148 461.211C370.476 456.848 372.344 437.237 379.392 438.023C387.316 438.905 379.392 446.659 377.151 451.253C375.491 454.653 373.741 459.529 372.943 461.831C373.586 461.97 374.252 462.107 374.932 462.234C375.981 458.998 379.889 448.119 384.858 448.752C390.692 449.494 388.347 453.858 384.213 456.447C381.179 458.351 377.454 461.058 375.683 462.364C377.184 462.61 378.749 462.775 380.335 462.738C384.412 462.64 386.403 463.844 387.172 464.494Z" fill="#82B378"/>
<path d="M73.2393 464.01H97.0321C98.3061 462.924 96.1488 460.46 93.8967 460.296C92.9187 460.221 91.6793 460.428 90.2642 460.727C89.9359 456.364 88.0676 436.752 81.02 437.539C73.096 438.42 81.02 446.175 83.2605 450.768C84.9207 454.169 86.671 459.045 87.4688 461.347C86.826 461.486 86.16 461.623 85.4803 461.75C84.4305 458.514 80.5228 447.634 75.5539 448.268C69.7201 449.01 72.0647 453.374 76.199 455.962C79.2326 457.867 82.9576 460.574 84.7288 461.88C83.2281 462.126 81.6628 462.291 80.0766 462.254C76.0001 462.156 74.0116 463.36 73.2393 464.01Z" fill="#82B378"/>
<path d="M241.516 440.063C241.516 440.063 240.844 442.184 240.904 444.389C240.965 446.594 237.592 448.138 237.592 448.138L230.842 445.578V442.674C230.842 442.674 231.769 440.636 232.135 437.573C232.505 434.505 241.516 440.063 241.516 440.063Z" fill="#E6E6E6"/>
<path opacity="0.97" d="M338.918 138.951C338.918 138.951 341.702 135.827 341.98 133.137C342.332 129.729 343.56 120.88 343.852 117.924C344.143 114.964 347.553 113.994 347.122 119.104C346.955 121.104 346.863 124.647 346.77 126.405C346.617 129.235 346.626 134.056 346.626 134.056L348.438 134.816L347.697 139.259L338.918 138.951Z" fill="#FFA8A7"/>
<path opacity="0.97" d="M338.014 144.159C338.478 145.227 339.08 146.373 339.52 147.287C341.044 150.43 342.503 151.395 342.777 152.532C343.041 153.637 342.411 159.708 342.411 159.708L352.2 160.542C352.2 160.542 352.524 155.283 352.751 153.982C352.978 152.682 353.918 150.001 354.831 147.693C355.739 145.385 356.642 140.718 356.642 140.718C354.155 140.536 349.383 143.735 349.383 143.735C349.383 143.735 348.41 142.215 346.469 141.539C345.051 141.04 343.411 140.732 343.411 140.732L344.333 139.632C344.333 139.632 345.107 140.378 346.872 140.639C348.637 140.895 349.54 138.681 349.54 138.681C349.54 138.681 345.376 137.161 344.139 136.289C342.902 135.417 341.878 134.83 341.063 136.028C340.252 137.226 337.718 140.35 337.384 141.483C337.218 142.052 337.537 143.063 338.014 144.159Z" fill="#FFA8A7"/>
<path d="M355.202 142.28C355.202 142.28 354.609 144.08 353.376 144.345C352.084 144.625 351.746 143.665 351.746 143.665C351.746 143.665 350.666 144.471 349.337 143.968C348.359 143.259 347.595 142.35 346.089 141.749C344.584 141.147 343.282 140.886 343.282 140.886L344.338 139.623C344.338 139.623 345.858 141.063 348.813 140.364C349.582 140.373 354.66 141.599 355.202 142.28Z" fill="#FF8D8D"/>
<path opacity="0.97" d="M356.818 138.597C357.277 139.483 356.522 141.478 356.137 143.073C355.753 144.667 352.816 144.056 352.556 142.928C352.329 141.926 352.825 139.324 353.386 138.308C353.951 137.287 356.105 137.203 356.818 138.597Z" fill="#FFA8A7"/>
<path opacity="0.97" d="M351.931 135.142C353.057 134.993 354.21 136.364 353.9 137.935C353.631 139.306 353.219 141.781 352.051 142.583C350.703 143.506 349.809 143.203 349.304 141.557C348.799 139.916 349.568 135.459 351.931 135.142Z" fill="#FFA8A7"/>
<path opacity="0.97" d="M349.999 132.76C350.796 133.24 350.805 134.681 350.708 136.695C350.61 138.704 350.022 141.04 348.822 141.525C347.622 142.01 346.344 141.721 346.066 138.919C345.83 136.545 346.339 134.578 346.946 133.301C347.28 132.62 348.484 131.846 349.999 132.76Z" fill="#FFA8A7"/>
<path d="M353.895 137.935C353.895 137.935 353.687 139.128 353.501 139.781C353.316 140.434 352.566 142.056 352.566 142.056C352.566 142.056 352.649 141.082 353.27 139.511C353.895 137.935 353.895 137.935 353.895 137.935Z" fill="#FF8D8D"/>
<path d="M350.745 135.73C350.745 135.73 350.045 137.431 349.916 137.963C349.781 138.49 349.286 141.059 349.286 141.059C349.286 141.059 349.045 139.637 349.383 138.434C349.781 137.021 350.745 135.73 350.745 135.73Z" fill="#FF8D8D"/>
<path d="M347.72 132.559C347.72 132.559 346.951 133.301 346.714 134.093C346.529 134.709 346.066 136.634 346.066 136.634C346.066 136.634 346.205 134.965 346.52 134.005C346.844 133.044 347.72 132.559 347.72 132.559Z" fill="#FF8D8D"/>
<path d="M346.575 140.518C346.575 140.518 347.312 140.891 348.567 140.14C349.11 139.818 349.471 138.825 349.471 138.825L349.429 138.629L349.383 138.429C349.383 138.429 349.276 139.175 348.271 139.958C347.562 140.513 346.575 140.518 346.575 140.518Z" fill="#FF8D8D"/>
<path d="M293.087 434.03C293.087 434.03 293.504 437.876 295.996 441.746C296.705 443.499 297.122 443.606 296.867 444.361C296.251 446.18 293.202 447.261 293.202 447.261L281.167 447.858L280.06 444.049C280.06 444.049 281.815 441.312 281.991 434.407C282.116 429.713 293.087 434.03 293.087 434.03Z" fill="#E6E6E6"/>
<path d="M325.154 242.514C325.154 242.514 320.906 335.581 301.388 401.65C295.199 423.95 294.884 434.743 294.884 434.743C294.884 434.743 283.372 436.328 278.957 433.475C278.957 433.475 283.65 335.945 296.07 270.594C296.07 270.594 277.618 347.731 260.941 388.442C244.263 429.153 245.329 440.221 245.329 440.221C245.329 440.221 234.576 440.785 227.368 434.51C227.368 434.51 249.938 337.931 253.25 326.504C256.563 315.077 258.138 294.759 258.138 294.759C258.138 294.759 259.078 260.03 268.033 241.707C276.997 223.384 325.154 242.514 325.154 242.514Z" fill="#E23939"/>
<path d="M259.166 140.168C259.166 140.168 238.12 166.3 228.466 187.019C227.396 189.317 227.104 191.91 227.613 194.395C231.926 215.3 259.166 232.066 259.166 232.066C259.166 232.066 258.615 229.366 264.211 222.699C264.211 222.699 255.136 205.868 248.002 197.406C247.353 196.637 247.21 195.556 247.636 194.642C249.595 190.436 255.632 178.468 265.073 168.58C276.752 156.355 259.166 140.168 259.166 140.168Z" fill="#FDE9D2"/>
<path d="M319.646 152.071L340.307 190.954C340.307 190.954 339.362 171.671 342.082 157.982C342.082 157.982 346.46 153.698 352.964 159.292C352.964 159.292 351.25 168.319 352.964 183.932C355.086 203.271 349.888 207.836 348.452 209.859C348.257 210.134 348.049 210.405 347.817 210.652C345.774 212.834 344.44 213.64 342.355 212.423C336.133 208.787 324.301 200.446 315.611 185.741C315.611 185.741 310.857 173.694 311.21 167.624C311.566 161.554 319.646 152.071 319.646 152.071Z" fill="#A3A3A3"/>
<path d="M315.606 185.737C324.297 200.446 336.133 208.782 342.355 212.419C344.435 213.64 345.774 212.829 347.812 210.652C348.044 210.405 348.252 210.134 348.447 209.859C349.883 207.831 355.086 203.267 352.959 183.928C352.232 177.293 352.121 171.853 352.241 167.782C352.241 167.782 343.759 162.318 340.849 166.677C340.849 166.677 340.849 166.682 340.845 166.682C339.7 178.622 340.303 190.954 340.303 190.954L319.646 152.066C319.646 152.066 311.562 161.549 311.21 167.624C310.853 173.694 315.606 185.737 315.606 185.737Z" fill="#FDE9D2"/>
<path d="M288.959 126.913L289.288 136.83C289.288 136.83 293.23 145.32 285.818 148.178C278.406 151.036 276.909 137.543 276.909 137.543C276.909 137.543 279.277 134.065 276.909 127.589C276.909 127.594 282.163 129.692 288.959 126.913Z" fill="#FF9999"/>
<path d="M285.804 129.347C285.804 129.347 283.534 132.149 281.366 131.039C279.198 129.93 276.909 127.594 276.909 127.594C276.909 127.594 281.57 130.433 285.804 129.347Z" fill="#FC7575"/>
<path d="M301.439 140.168C302.208 140.877 303.797 141.716 305.808 142.317C310.047 143.59 311.664 144.173 314.522 145.721C316.046 146.546 318.08 148.224 319.646 152.071C319.646 152.071 309.551 160.164 315.231 184.133C319.905 203.873 323.727 225.981 324.932 233.166C325.196 234.742 325.849 236.229 326.826 237.488L328.276 239.348C328.689 239.875 328.55 240.649 327.975 240.994C322.787 244.155 297.455 256.412 268.038 241.707C268.867 236.35 269.303 205.934 269.08 197.267C268.849 188.152 268.918 175.391 265.082 168.58C265.082 168.58 269.224 153.898 259.166 140.168C259.166 140.168 262.831 138.256 266.884 137.748L283.622 141.674C283.622 141.674 284.664 142.01 285.6 141.795C286.541 141.576 301.439 140.168 301.439 140.168Z" fill="#E85353"/>
<path d="M270.405 121.421C274.514 125.841 277.975 128.33 280.254 129.669C282.015 130.704 284.197 130.699 285.929 129.627C288.672 127.925 292.832 124.68 295.366 119.523C299.396 111.323 295.755 87.3167 295.755 87.3167C291.048 89.9042 284.498 91.0465 284.044 91.121C278.406 92.0535 270.725 91.9603 264.605 89.9835C264.6 89.9835 262.937 113.393 270.405 121.421Z" fill="#FFA8A7"/>
<path d="M266.389 92.5197C266.389 92.5197 266.671 93.1911 265.259 97.0748C263.846 100.958 265.259 107.723 265.259 107.723C265.259 107.723 257.814 95.4476 258.319 88.7526C258.824 82.053 266.389 92.5197 266.389 92.5197Z" fill="black"/>
<path d="M293.393 89.6525C293.393 89.6525 292.726 92.5244 294.852 95.6948C296.978 98.8651 297.266 104.502 297.266 104.502C297.266 104.502 303.955 92.958 299.359 86.5148C294.764 80.0716 293.393 89.6525 293.393 89.6525Z" fill="black"/>
<path d="M255.048 84.1696C256.373 88.0486 260.051 90.5523 264.605 92.0115C270.725 93.9837 278.406 94.0816 284.044 93.1491C284.498 93.0745 291.048 91.9323 295.755 89.3447C298.299 87.9461 300.305 86.1231 300.513 83.8246C300.893 79.6892 295.292 76.1506 294.852 75.8801C290.516 73.2087 287.217 74.4162 279.925 74.1504C266.347 73.6656 262.386 68.9147 258.138 72.0804C254.793 74.5701 253.677 80.1554 255.048 84.1696Z" fill="black"/>
<path d="M289.158 132.862C289.158 132.862 292.406 131.613 301.514 138.993L300.745 151.432L285.605 141.79C285.6 141.795 289.066 139.077 289.158 132.862Z" fill="#FDE9D2"/>
<path d="M277.957 132.783C277.957 132.783 269.752 132.746 266.264 136.853C266.264 136.853 273.185 146.91 277.558 151.852L283.622 141.674C283.622 141.674 277.322 138.462 277.957 132.783Z" fill="#FDE9D2"/>
<path d="M340.85 166.677C343.759 162.318 352.241 167.782 352.241 167.782C352.394 162.272 352.959 159.288 352.959 159.288C346.455 153.693 342.077 157.978 342.077 157.978C341.535 160.719 341.137 163.684 340.85 166.677Z" fill="#FF7676"/>
<path d="M259.162 232.056C259.138 231.907 258.763 229.18 264.211 222.695C264.211 222.695 262.126 218.83 259.166 213.864C259.166 213.864 254.617 215.752 251.411 226.522C255.78 229.958 259.018 231.968 259.162 232.056Z" fill="#FF7676"/>
<path opacity="0.97" d="M259.342 225.235L263.618 223.45L264.878 224.876L273.43 216.685C273.718 216.41 274.107 216.274 274.5 216.321C275.724 216.461 278.508 216.964 280.884 218.727C282.835 220.172 282.223 220.848 281.473 221.151C280.963 221.356 280.393 221.319 279.911 221.067C278.73 220.456 276.048 219.221 274.658 219.794C273.338 220.345 272.851 221.464 272.684 222.028C272.634 222.2 272.763 222.368 272.944 222.363L274.598 222.326C275.51 222.303 276.386 222.69 276.988 223.375L280.921 227.837C281.25 228.21 281.524 228.634 281.7 229.105C282.019 229.972 282.08 231.086 279.823 230.387C279.823 230.387 281.519 231.259 280.768 232.452C280.018 233.641 277.456 232.056 277.456 232.056C277.456 232.056 272.175 229.012 269.956 228.774C269.956 228.774 272.087 230.532 276.46 233.329C276.46 233.329 277.641 234.164 277.289 235.026C277.113 235.46 276.571 235.539 276.076 235.516C275.589 235.488 275.112 235.348 274.677 235.129L271.063 233.324C270.706 233.147 270.289 233.128 269.923 233.287C268.918 233.716 266.685 234.592 264.207 235.031C262.678 235.357 258.685 230.476 258.685 230.476L259.342 225.235ZM277.558 228.592L275.154 226.135L271.133 225.259L277.558 228.592Z" fill="#FFA8A7"/>
<path d="M267.093 222.774C266.305 223.38 265.624 224.079 264.966 224.806C264.318 225.538 263.697 226.298 263.183 227.147C263.97 226.541 264.656 225.841 265.309 225.114C265.953 224.382 266.574 223.622 267.093 222.774Z" fill="#FF8D8D"/>
<path d="M273.417 222.364C273.417 222.364 272.198 222.709 270.442 222.303L273.417 222.364Z" fill="#FF8D8D"/>
<path d="M277.47 450.926C277.47 450.926 284.683 454.003 291.956 452.474C300.267 452.772 306.248 459.099 319.252 454.497C319.252 454.497 321.142 449.42 309.787 447.914C299.081 445.872 295.991 441.009 295.991 441.009C295.991 441.009 293.151 448.706 280.06 443.308C280.06 443.308 276.492 447.835 277.47 450.926Z" fill="#742A2A"/>
<path d="M278.091 456.544C278.786 457.458 286.782 456.819 290.724 455.518C292.086 455.066 293.587 455.616 294.926 456.134C299.401 457.863 310.714 461.5 318.659 457.714C318.659 457.714 320.433 456.763 319.252 454.497C306.248 459.099 300.267 452.772 291.956 452.474C284.683 454.003 277.47 450.926 277.47 450.926C277.47 450.926 276.261 454.143 278.091 456.544Z" fill="#8E8E8E"/>
<path d="M241.516 452.329L241.094 455.313C241.025 455.793 240.668 456.185 240.191 456.269C239.098 456.464 237.157 457.294 236.55 460.702L236.272 462.036C236.193 462.418 235.947 462.74 235.6 462.908C234.206 463.593 230.296 465.076 225.19 463.281C218.765 461.019 219.001 460.026 219.001 460.026L219.557 456.693L231.5 452.525L241.516 452.329Z" fill="#8E8E8E"/>
<path d="M241.256 444.697L241.516 452.334C241.516 452.334 237.416 452.096 236.628 458.208C235.841 464.32 224.171 460.749 224.171 460.749C224.171 460.749 220.27 459.602 219.599 457.28C218.927 454.958 224.922 450.991 224.922 450.991C224.922 450.991 229.499 447.037 230.699 442.552C230.763 442.506 232.579 443.82 241.256 444.697Z" fill="#742A2A"/>
<path d="M204.17 155.373C193.738 154.408 187.34 149.335 187.34 149.335L158.363 147.923C158.363 147.923 153.665 149.829 142.394 153.023C131.192 156.198 133.86 182.353 133.86 182.353L136.492 219.684C136.492 219.684 137.214 225.116 138.702 227.717L140.101 222.034L157.427 231.759C184.662 241.121 197.166 227.26 197.166 227.26C197.384 227.918 197.634 228.566 197.921 229.195L203.73 241.806C209.331 230.976 210.341 222.64 210.341 222.64L212.106 181.491C212.101 181.491 214.603 156.338 204.17 155.373Z" fill="#FDE9D2"/>
<path d="M214.598 437.887C214.598 437.887 207.427 440.003 195.771 438.838C195.771 438.838 205.213 435.546 214.598 437.887Z" fill="#AE3E3E"/>
<path d="M198.949 436.166C198.949 436.166 198.658 441.374 197.689 445.234C196.721 449.095 203.429 454.083 203.429 454.083L208.076 454.135L211.254 444.689C211.254 444.689 210.156 438.857 210.425 436.143C210.693 433.43 210.577 431.793 210.577 431.793L198.324 432.488C198.329 432.488 198.871 434.264 198.949 436.166Z" fill="#E6E6E6"/>
<path d="M214.548 457.193L214.515 460.242C214.51 460.839 214.232 461.394 213.76 461.753C212.597 462.643 209.943 464.084 204.935 464.117C200.038 464.154 197.055 462.89 195.637 462.065C195.012 461.702 194.641 461.016 194.664 460.284L194.775 456.62C194.771 456.624 203.471 464.774 214.548 457.193Z" fill="#8E8E8E"/>
<path d="M197.689 445.234C197.689 445.234 202.127 453.846 205.055 453.254C207.983 452.661 211.254 444.684 211.254 444.684C211.254 444.684 216.262 456.051 214.019 458.517C211.782 460.984 205.139 461.445 205.139 461.445C205.139 461.445 199.292 461.823 196.137 459.142C195.322 458.447 194.849 457.44 194.743 456.373C194.252 451.487 197.689 445.234 197.689 445.234Z" fill="#742A2A"/>
<path d="M148.347 440.651C148.347 440.651 159.817 440.432 168.253 439.22C168.253 439.22 155.212 434.315 148.347 440.651Z" fill="#AE3E3E"/>
<path d="M151.891 436.246C151.891 436.246 151.599 441.453 150.631 445.314C149.662 449.174 156.371 454.163 156.371 454.163L161.017 454.214L164.195 444.768C164.195 444.768 163.097 438.936 163.366 436.222C163.635 433.509 163.519 431.873 163.519 431.873L151.265 432.567C151.27 432.563 151.812 434.339 151.891 436.246Z" fill="#E6E6E6"/>
<path d="M167.489 457.273L167.456 460.322C167.452 460.918 167.174 461.473 166.701 461.832C165.539 462.723 162.884 464.163 157.876 464.196C152.979 464.233 149.996 462.97 148.578 462.145C147.953 461.781 147.582 461.096 147.606 460.364L147.717 456.699C147.717 456.699 156.412 464.853 167.489 457.273Z" fill="#8E8E8E"/>
<path d="M150.631 445.314C150.631 445.314 155.069 453.925 157.996 453.333C160.924 452.741 164.195 444.764 164.195 444.764C164.195 444.764 169.203 456.13 166.961 458.597C164.723 461.063 158.08 461.524 158.08 461.524C158.08 461.524 152.233 461.902 149.079 459.221C148.263 458.527 147.791 457.52 147.684 456.452C147.198 451.561 150.631 445.314 150.631 445.314Z" fill="#742A2A"/>
<path d="M199.149 227.246C199.149 227.246 218.337 259.593 214.802 307.791C211.268 355.99 214.598 437.891 214.598 437.891L210.929 437.756C207.742 437.635 204.546 437.77 201.381 438.157L195.771 438.842C195.771 438.842 183.708 301.661 178.473 283.343C178.473 283.343 169.689 394.122 168.253 439.22C168.253 439.22 157.39 436.577 148.347 440.651C148.347 440.651 150.07 350.106 143.093 302.029C136.116 253.951 157.473 229.834 157.473 229.834C157.473 229.834 180.15 234.044 199.139 227.241L199.149 227.246Z" fill="#E85353"/>
<path d="M182.096 140.267C182.096 140.267 181.424 139.731 180.173 139.726L180.238 142.925L180.456 144.477C180.456 144.477 181.966 142.085 182.096 140.267Z" fill="#CCCCCC"/>
<path d="M165.414 131.031L165.705 143.605L166.215 148.421C166.215 148.421 169.81 153.932 170.088 154.123C170.366 154.315 177.116 154.203 177.116 154.203L181.202 149.345L180.247 142.263L180.09 134.411L165.414 131.031Z" fill="#FF9C9C"/>
<path d="M165.45 132.094C165.45 132.094 168.767 138.192 172.279 138.514C175.791 138.836 180.09 134.514 180.09 134.514C180.09 134.514 171.654 137.833 165.45 132.094Z" fill="#FF9797"/>
<path d="M172.71 93.1645C171.297 92.7635 169.787 92.9967 168.573 93.8265C165.372 96.0178 159.071 101.319 157.635 109.781C157.126 109.464 156.287 109.268 155.639 110.741C154.869 112.494 156.908 116.569 157.862 118.313C159.877 128.588 167.461 135.353 171.181 137.036C173.048 137.88 174.975 137.782 176.393 137.027C180.609 134.77 188.354 131.022 188.577 115.478C188.799 99.4958 177.616 94.5585 172.71 93.1645Z" fill="#FFA8A7"/>
<path d="M155.643 110.741C154.874 112.494 156.908 116.569 157.862 118.313C157.871 118.369 157.885 118.429 157.899 118.48C157.899 118.49 157.899 118.499 157.904 118.508C158.316 120.76 158.942 122.667 159.697 124.271C159.697 124.28 159.701 124.285 159.706 124.29C162.713 130.691 167.614 132.295 167.614 132.295C167.614 132.295 166.65 132.57 165.057 132.691C160.123 133.069 151.228 131.045 144.339 117.702C134.949 97.7707 146.498 84.2222 146.498 84.2222C146.498 84.2222 155.333 69.9045 170.977 75.1588L170.982 92.9686C170.982 92.9686 170.968 92.9779 170.945 92.9919C170.324 93.3556 162.272 98.1997 158.835 105.65C158.719 105.897 158.608 106.158 158.511 106.41C158.085 107.487 157.788 108.615 157.612 109.762C157.102 109.459 156.278 109.291 155.643 110.741Z" fill="black"/>
<path d="M157.899 118.481C157.885 118.429 157.871 118.369 157.862 118.313C156.908 116.569 154.869 112.494 155.643 110.741C156.278 109.291 157.102 109.459 157.612 109.767C157.491 110.527 157.431 111.296 157.417 112.061C157.38 114.466 157.561 116.597 157.899 118.481Z" fill="#FF9797"/>
<path d="M170.857 75.1588C170.857 75.1588 188.994 68.7296 199.093 90.1386C209.192 111.548 183.439 136.328 183.439 136.328C183.439 136.328 190.592 115.11 181.174 105.911C171.755 96.7124 170.857 92.9686 170.857 92.9686V75.1588Z" fill="black"/>
<path d="M174.026 151.951C176.018 150.221 180.891 145.545 182.1 140.267L188.322 146.44C189.11 147.223 189.188 148.477 188.493 149.349C185.542 153.051 177.848 162.212 173.048 163.508L173.155 153.839C173.164 153.112 173.479 152.426 174.026 151.951Z" fill="white"/>
<path d="M164.413 139.787C164.413 139.787 165.219 139.428 165.608 139.447C165.997 139.465 165.7 143.409 165.7 143.409C165.7 143.409 164.413 141.069 164.413 139.787Z" fill="#CCCCCC"/>
<path d="M128 176.619L144.719 168.348L172.696 236.617L152.979 237.825L128 176.619Z" fill="#4D4D4D"/>
<path d="M172.321 151.792C170.343 149.993 165.515 145.153 164.417 139.787L157.983 145.89C157.167 146.664 157.061 147.932 157.742 148.827C160.646 152.636 168.225 162.086 173.053 163.508L173.164 153.718C173.168 152.986 172.863 152.282 172.321 151.792Z" fill="white"/>
<path d="M138.576 229.265C136.529 226.286 136.464 222.397 138.66 219.521C140.221 217.474 142.764 215.684 146.883 215.796C153.262 215.968 156.94 212.285 158.65 209.898C159.451 208.779 160.785 208.117 162.198 208.159C162.458 208.168 162.717 208.168 162.977 208.126C164.552 207.875 166.78 207.506 168.397 209.082C170.829 211.451 170.361 216.075 169.166 218.668C168.531 220.043 167.355 221.143 165.858 221.656C164.019 222.281 161.184 222.705 157.612 221.507C151.627 219.498 147.309 241.988 138.576 229.265Z" fill="#FFA8A7"/>
<path d="M199.139 227.265C198.287 223.325 197.814 219.297 197.782 215.241C197.768 213.213 197.898 211.18 198.185 209.152L198.458 207.641C198.565 207.138 198.708 206.644 198.833 206.145C198.94 205.641 199.153 205.161 199.315 204.672L199.82 203.254C201.224 199.576 201.655 195.571 201.687 191.599C201.682 189.608 201.562 187.608 201.349 185.617C201.154 183.622 200.835 181.64 200.422 179.668C201.664 183.5 202.368 187.524 202.549 191.58C202.572 192.088 202.567 192.596 202.577 193.105L202.581 193.869L202.544 194.634C202.516 195.142 202.507 195.65 202.461 196.158L202.299 197.683C202.007 199.702 201.604 201.725 200.849 203.646L200.33 205.063C200.172 205.525 199.968 205.968 199.862 206.448C199.741 206.924 199.598 207.394 199.491 207.875L199.209 209.329C198.875 211.278 198.722 213.269 198.634 215.26C198.565 217.255 198.597 219.26 198.685 221.26C198.755 223.26 198.926 225.26 199.139 227.265Z" fill="#FFD5B0"/>
</svg>
